<?xml version="1.0" encoding="UTF-8" standalone="no"?>
<!-- Created with Inkscape (http://www.inkscape.org/) -->

<svg
   width="158.37502mm"
   height="66.693733mm"
   viewBox="0 0 158.37502 66.693733"
   version="1.1"
   id="svg5"
   xml:space="preserve"
   inkscape:version="1.2.2 (732a01da63, 2022-12-09)"
   sodipodi:docname="dibujo-2.svg"
   xmlns:inkscape="http://www.inkscape.org/namespaces/inkscape"
   xmlns:sodipodi="http://sodipodi.sourceforge.net/DTD/sodipodi-0.dtd"
   xmlns:xlink="http://www.w3.org/1999/xlink"
   xmlns="http://www.w3.org/2000/svg"
   xmlns:svg="http://www.w3.org/2000/svg"><sodipodi:namedview
     id="namedview7"
     pagecolor="#ffffff"
     bordercolor="#000000"
     borderopacity="0.25"
     inkscape:showpageshadow="2"
     inkscape:pageopacity="0.0"
     inkscape:pagecheckerboard="0"
     inkscape:deskcolor="#d1d1d1"
     inkscape:document-units="mm"
     showgrid="false"
     inkscape:zoom="0.38440306"
     inkscape:cx="420.13193"
     inkscape:cy="593.12743"
     inkscape:window-width="1920"
     inkscape:window-height="1017"
     inkscape:window-x="-8"
     inkscape:window-y="-8"
     inkscape:window-maximized="1"
     inkscape:current-layer="svg5" /><defs
     id="defs2"><linearGradient
       inkscape:collect="always"
       id="linearGradient2622"><stop
         style="stop-color:#ffffff;stop-opacity:1;"
         offset="0"
         id="stop2618" /><stop
         style="stop-color:#00cfff;stop-opacity:1;"
         offset="1"
         id="stop2620" /></linearGradient><linearGradient
       inkscape:collect="always"
       xlink:href="#linearGradient2622"
       id="linearGradient32876"
       gradientUnits="userSpaceOnUse"
       gradientTransform="matrix(0.30753901,0,0,0.30753901,261.98744,-147.37488)"
       x1="102.75659"
       y1="183.34502"
       x2="116.63796"
       y2="183.34502" /></defs><g
     inkscape:label="Capa 1"
     inkscape:groupmode="layer"
     id="layer1"
     style="display:inline"
     transform="translate(-225.07961,106.33869)"><text
       xml:space="preserve"
       style="font-style:normal;font-variant:normal;font-weight:normal;font-stretch:normal;font-size:24.6953px;line-height:7.7;font-family:roboto;-inkscape-font-specification:roboto;letter-spacing:2.64583px;display:inline;fill:#ffffff;fill-opacity:1;stroke:#ffffff;stroke-width:1.95618;stroke-linecap:round;stroke-linejoin:round;stroke-dasharray:none;stroke-opacity:1;paint-order:fill markers stroke"
       x="224.0078"
       y="-42.519722"
       id="text12624-8"
       inkscape:export-filename="..\Users\teodo\OneDrive\Escritorio\logo.svg"
       inkscape:export-xdpi="96"
       inkscape:export-ydpi="96"><tspan
         sodipodi:role="line"
         id="tspan12622-0"
         style="font-style:normal;font-variant:normal;font-weight:normal;font-stretch:normal;font-family:roboto;-inkscape-font-specification:roboto;fill:#ffffff;fill-opacity:1;stroke:#ffffff;stroke-width:1.95618;stroke-dasharray:none;stroke-opacity:1"
         x="224.0078"
         y="-42.519722">Min</tspan></text><text
       xml:space="preserve"
       style="font-style:normal;font-variant:normal;font-weight:normal;font-stretch:normal;font-size:27.1729px;font-family:roboto;-inkscape-font-specification:roboto;letter-spacing:2.64583px;display:inline;fill:#ffffff;fill-opacity:1;stroke:#ffffff;stroke-width:2.15244;stroke-linecap:round;stroke-linejoin:round;stroke-dasharray:none;stroke-opacity:1;paint-order:fill markers stroke"
       x="320.95755"
       y="-41.694893"
       id="text12780-5"><tspan
         sodipodi:role="line"
         id="tspan12778-1"
         style="stroke-width:2.15244"
         x="320.95755"
         y="-41.694893">oost</tspan></text></g><g
     inkscape:groupmode="layer"
     id="layer2"
     inkscape:label="Capa 2"
     transform="translate(-225.07961,106.33869)"><circle
       style="fill:url(#linearGradient32876);fill-opacity:1;stroke:none;stroke-width:0.893708;stroke-linecap:round;stroke-linejoin:round;stroke-dasharray:none;stroke-opacity:1;paint-order:fill markers stroke"
       id="path301-9-9-3-6"
       cx="295.7236"
       cy="-90.989136"
       r="2.134532" /><path
       id="rect23689-8-3"
       style="color:#000000;fill:none;stroke:#ffffff;stroke-width:2.197;stroke-linecap:square;stroke-dasharray:none;stroke-opacity:1;paint-order:markers fill stroke"
       d="m 296.1555,-46.26889 2.85985,2.875465 c 3.52343,3.542651 9.31851,3.533052 12.85157,0 l 0.002,-0.0021 0.002,-0.0024 c 3.5123,-3.535409 3.49335,-9.305883 -0.0421,-12.818183 -1.76771,-1.756149 -4.09403,-2.629375 -6.4176,-2.621758 -2.32163,0.0076 -4.64044,0.894784 -6.39607,2.659555 l -5.1e-4,7.09e-4 c -8.3e-4,0.0012 -0.002,0.0023 -0.003,0.0035 l -3.74635,3.746364 -1.8e-4,-1.78e-4 -2.69165,2.648517 -3.72246,3.722455 c -2.09253,2.092506 -5.42711,2.093209 -7.52089,0.0028 -2.0763,-2.091301 -2.06542,-5.412464 0.0254,-7.489603 1.04561,-1.038779 2.399,-1.555653 3.75068,-1.551222 1.35168,0.0044 2.7018,0.529979 3.74057,1.575592 l 0.002,0.0024 2.45402,2.453833 m 2.68097,-2.645352 -2.4657,-2.465697 c -1.75615,-1.767703 -4.07665,-2.656164 -6.40022,-2.663782 v 6.2e-5 c -2.32356,-0.0076 -4.65026,0.865608 -6.41796,2.621757 -3.53541,3.5123 -3.55433,9.282773 -0.042,12.81818 l 0.002,0.0024 0.002,0.0021 c 3.53305,3.533052 9.31851,3.533052 12.85156,0 l 3.7506,-3.750779 0.002,0.0021 2.68344,-2.643827 3.73083,-3.730913 0.003,-0.0024 c 1.03878,-1.045614 2.38852,-1.57116 3.7402,-1.575593 1.35168,-0.0044 2.70507,0.512443 3.75068,1.551222 2.09051,2.076838 2.1018,5.397146 0.0264,7.488499 -2.09371,2.091421 -5.42901,2.09112 -7.52187,-0.0017 l -2.44143,-2.441601 m 0,0 -0.0966,-0.104378"
       sodipodi:nodetypes="cscccssccccccccsscccccsssscsccccccssccccc" /><g
       id="path33605"
       style="fill:#000000;fill-opacity:0.984227;stroke:#ffffff;stroke-width:1.6;stroke-dasharray:none;stroke-opacity:1"
       transform="rotate(-27.022619,-38.933452,-426.89855)"><path
         style="color:#000000;opacity:1;fill:#ff0000;fill-opacity:0;stroke:#ffffff;stroke-width:1.6;stroke-linecap:round;stroke-linejoin:round;stroke-dasharray:none;stroke-opacity:1;paint-order:fill markers stroke"
         d="m 93.058753,42.009966 a 1.0985,1.0985 0 0 0 -1.082032,1.115235 c 0.07403,4.885691 -5.365234,7.322266 -5.365234,7.322265 a 1.0985,1.0985 0 0 0 -0.566406,1.447266 1.0985,1.0985 0 0 0 1.447265,0.566406 c 0,0 6.777733,-2.897947 6.679688,-9.36914 a 1.0985,1.0985 0 0 0 -1.113281,-1.082032 z"
         id="path34205" /></g><g
       id="g34288"
       style="fill:#000000;fill-opacity:0.984227;stroke:#ffffff;stroke-width:1.6;stroke-dasharray:none;stroke-opacity:1"
       transform="matrix(-0.89082723,-0.45434221,-0.45434221,0.89082723,400.90832,-64.466882)"><path
         style="color:#000000;opacity:1;fill:#ff0000;fill-opacity:0;stroke:#ffffff;stroke-width:1.6;stroke-linecap:round;stroke-linejoin:round;stroke-dasharray:none;stroke-opacity:1;paint-order:fill markers stroke"
         d="m 93.058753,42.009966 a 1.0985,1.0985 0 0 0 -1.082032,1.115235 c 0.07403,4.885691 -5.365234,7.322266 -5.365234,7.322265 a 1.0985,1.0985 0 0 0 -0.566406,1.447266 1.0985,1.0985 0 0 0 1.447265,0.566406 c 0,0 6.777733,-2.897947 6.679688,-9.36914 a 1.0985,1.0985 0 0 0 -1.113281,-1.082032 z"
         id="path34286" /></g></g><g
     inkscape:groupmode="layer"
     id="layer3"
     inkscape:label="Capa 3"
     transform="translate(-225.07961,106.33869)"><path
       style="fill:none;fill-opacity:1;stroke:#ffffff;stroke-width:2;stroke-linecap:round;stroke-linejoin:round;stroke-dasharray:none;stroke-opacity:1;paint-order:fill markers stroke"
       d="m 291.03742,-74.578893 c 0,0 -2.09353,-7.51042 -2.35865,-10.32967"
       id="path16022-3"
       sodipodi:nodetypes="cc" /><path
       style="fill:none;fill-opacity:1;stroke:#ffffff;stroke-width:2;stroke-linecap:round;stroke-linejoin:round;stroke-dasharray:none;stroke-opacity:1;paint-order:fill markers stroke"
       d="m 299.94769,-73.890603 c 0,0 3.12777,-8.66633 2.99744,-11.27265"
       id="path16022-9-0"
       sodipodi:nodetypes="cc" /><path
       style="fill:none;fill-opacity:1;stroke:#ffffff;stroke-width:2.759;stroke-linecap:round;stroke-linejoin:round;stroke-dasharray:none;stroke-opacity:1;paint-order:fill markers stroke"
       d="m 288.21646,-84.964503 c 0.56404,-13.25406 7.53011,-19.994697 7.53011,-19.994697 6.80721,1.0009 7.64174,19.753467 7.64174,19.753467 8.0098,1.54666 3.85434,17.93338 3.85434,17.93338 h -4.122 c 0,0 -2.19483,-8.00311 -8.3243,-8.00311 -6.12947,0 -7.62838,7.62838 -7.62838,7.62838 h -3.15842 c 0.3152,-0.27916 -5.26848,-15.60342 4.20691,-17.31742 z"
       id="path10677-5"
       sodipodi:nodetypes="cccccsccc" /></g></svg>
